<svg width="39" height="30" viewBox="0 0 39 30" fill="none" xmlns="http://www.w3.org/2000/svg">
<path d="M19.6026 0C22.195 0 24.631 0.391331 26.9105 1.17399C29.19 1.95665 31.1789 3.02392 32.8774 4.37579C34.5758 5.72766 35.9167 7.30484 36.9 9.10733C37.8833 10.9098 38.375 12.8428 38.375 14.9061C38.375 16.9695 37.8833 18.9084 36.9 20.7227C35.9167 22.5371 34.5758 24.1202 32.8774 25.4721C31.1789 26.8239 29.19 27.8912 26.9105 28.6739C24.631 29.4565 22.195 29.8479 19.6026 29.8479C17.0103 29.8479 14.5818 29.4565 12.3172 28.6739C10.0526 27.8912 8.07107 26.8239 6.37262 25.4721C4.67417 24.1202 3.33328 22.5371 2.34997 20.7227C1.36666 18.9084 0.875 16.9695 0.875 14.9061C0.875 12.8428 1.36666 10.9098 2.34997 9.10733C3.33328 7.30484 4.67417 5.72766 6.37262 4.37579C8.07107 3.02392 10.0526 1.95665 12.3172 1.17399C14.5818 0.391331 17.0103 0 19.6026 0ZM26.6646 6.51032H22.6867C21.9119 6.51032 21.1968 6.61705 20.5413 6.8305C19.8857 7.04395 19.3121 7.32856 18.8205 7.68431C18.3288 8.04007 17.9489 8.44326 17.6807 8.89388C17.4125 9.3445 17.2785 9.79513 17.2785 10.2457V12.1313H13.7475V15.8311H17.2785V23.302H21.9715V15.8311H25.4578V12.1313H21.9715V11.1707C21.9715 10.8861 22.1131 10.6608 22.3962 10.4948C22.6792 10.3288 22.9251 10.2457 23.1336 10.2457H26.6646V6.51032Z" fill="white"/>
</svg>
