<svg width="38" height="30" viewBox="0 0 38 30" fill="none" xmlns="http://www.w3.org/2000/svg">
<path d="M19.0484 18.2225C18.4809 18.2225 17.9507 18.1393 17.4579 17.9729C16.9651 17.8065 16.532 17.5747 16.1586 17.2775C15.7852 16.9804 15.494 16.6297 15.2849 16.2255C15.0759 15.8214 14.9713 15.3935 14.9713 14.9418C14.9713 14.4901 15.0759 14.0681 15.2849 13.6758C15.494 13.2835 15.7852 12.9388 16.1586 12.6417C16.532 12.3445 16.9651 12.1127 17.4579 11.9463C17.9507 11.7799 18.4809 11.6967 19.0484 11.6967C20.1834 11.6967 21.1467 12.0117 21.9382 12.6417C22.7297 13.2717 23.1254 14.0384 23.1254 14.9418C23.1254 15.3935 23.0209 15.8214 22.8118 16.2255C22.6027 16.6297 22.3115 16.9804 21.9382 17.2775C21.5648 17.5747 21.1317 17.8065 20.6389 17.9729C20.1461 18.1393 19.6159 18.2225 19.0484 18.2225ZM25.5896 14.9418C25.5896 14.7278 25.5747 14.5079 25.5448 14.282C25.5149 14.0562 25.4701 13.8482 25.4104 13.658H27.2473V20.8257C27.2473 21.0159 27.1726 21.1705 27.0233 21.2893C26.874 21.4082 26.6798 21.4676 26.4409 21.4676H11.6559C11.417 21.4676 11.2228 21.4082 11.0735 21.2893C10.9241 21.1705 10.8495 21.0159 10.8495 20.8257V13.658H12.6864C12.6266 13.8482 12.5818 14.0562 12.552 14.282C12.5221 14.5079 12.5072 14.7278 12.5072 14.9418C12.5072 15.655 12.6789 16.3325 13.0224 16.9744C13.3659 17.6163 13.8289 18.175 14.4113 18.6505C14.9937 19.1259 15.6882 19.5004 16.4946 19.7738C17.3011 20.0472 18.1523 20.1839 19.0484 20.1839C19.9444 20.1839 20.7957 20.0472 21.6021 19.7738C22.4086 19.5004 23.103 19.1259 23.6855 18.6505C24.2679 18.175 24.7309 17.6163 25.0744 16.9744C25.4179 16.3325 25.5896 15.655 25.5896 14.9418ZM19.2276 0C21.8262 0 24.2605 0.392266 26.5305 1.1768C28.8005 1.96133 30.7867 3.0252 32.4892 4.36841C34.1918 5.71163 35.5358 7.28663 36.5215 9.09343C37.5072 10.9002 38 12.8378 38 14.9061C38 16.9744 37.5072 18.912 36.5215 20.7188C35.5358 22.5256 34.1918 24.1065 32.4892 25.4616C30.7867 26.8167 28.8005 27.8865 26.5305 28.6711C24.2605 29.4556 21.8262 29.8479 19.2276 29.8479C16.629 29.8479 14.1947 29.4556 11.9247 28.6711C9.65472 27.8865 7.67593 26.8167 5.98835 25.4616C4.30078 24.1065 2.96416 22.5256 1.97849 20.7188C0.992831 18.912 0.5 16.9744 0.5 14.9061C0.5 12.8378 0.992831 10.9002 1.97849 9.09343C2.96416 7.28663 4.30078 5.71163 5.98835 4.36841C7.67593 3.0252 9.65472 1.96133 11.9247 1.1768C14.1947 0.392266 16.629 0 19.2276 0ZM29.7115 8.41588C29.7115 7.86909 29.4725 7.4055 28.9946 7.02512C28.5167 6.64474 27.9343 6.45456 27.2473 6.45456H10.8495C10.1625 6.45456 9.58005 6.64474 9.10215 7.02512C8.62425 7.4055 8.3853 7.86909 8.3853 8.41588V21.4676C8.3853 22.0144 8.62425 22.478 9.10215 22.8584C9.58005 23.2388 10.1625 23.429 10.8495 23.429H27.2473C27.9343 23.429 28.5167 23.2388 28.9946 22.8584C29.4725 22.478 29.7115 22.0144 29.7115 21.4676V8.41588ZM26.4409 8.41588C26.6798 8.41588 26.874 8.48126 27.0233 8.61202C27.1726 8.74277 27.2473 8.90324 27.2473 9.09343V11.0548C27.2473 11.245 27.1726 11.3995 27.0233 11.5184C26.874 11.6372 26.6798 11.6967 26.4409 11.6967H23.9767C23.7378 11.6967 23.5361 11.6372 23.3719 11.5184C23.2076 11.3995 23.1254 11.245 23.1254 11.0548V9.09343C23.1254 8.90324 23.2076 8.74277 23.3719 8.61202C23.5361 8.48126 23.7378 8.41588 23.9767 8.41588H26.4409Z" fill="white"/>
</svg>
