<svg width="25" height="25" viewBox="0 0 25 25" fill="none" xmlns="http://www.w3.org/2000/svg">
<path d="M3.64575 20.8333C3.22909 20.8333 2.8645 20.677 2.552 20.3645C2.2395 20.052 2.08325 19.6875 2.08325 19.2708V5.72913C2.08325 5.31246 2.2395 4.94788 2.552 4.63538C2.8645 4.32288 3.22909 4.16663 3.64575 4.16663H21.3541C21.7708 4.16663 22.1353 4.32288 22.4478 4.63538C22.7603 4.94788 22.9166 5.31246 22.9166 5.72913V19.2708C22.9166 19.6875 22.7603 20.052 22.4478 20.3645C22.1353 20.677 21.7708 20.8333 21.3541 20.8333H3.64575ZM12.4999 12.9687L3.64575 7.16142V19.2708H21.3541V7.16142L12.4999 12.9687ZM12.4999 11.4062L21.2499 5.72913H3.77596L12.4999 11.4062ZM3.64575 7.16142V5.72913V19.2708V7.16142Z" fill="white"/>
</svg>
