<svg width="39" height="26" viewBox="0 0 39 26" fill="none" xmlns="http://www.w3.org/2000/svg">
<path d="M38.3175 3.25631C37.1845 4.6072 35.8712 5.7048 34.3776 6.54911V7.43563C34.3776 9.5464 33.8884 11.6888 32.9098 13.8629C31.9313 16.037 30.5021 18 28.6223 19.752C26.7424 21.5039 24.412 22.9392 21.6309 24.0579C18.8498 25.1767 15.6566 25.736 12.0515 25.736C9.78539 25.736 7.64806 25.4827 5.63948 24.9761C3.6309 24.4695 1.75107 23.7519 0 22.8231C0.309012 22.8654 0.618025 22.897 0.927037 22.9181C1.23605 22.9392 1.54506 22.9498 1.85407 22.9498C3.70815 22.9498 5.47209 22.6965 7.14591 22.1899C8.81973 21.6833 10.3262 21.0079 11.6652 20.1636C9.91415 20.1214 8.38196 19.6887 7.06866 18.8654C5.75535 18.0422 4.84119 16.9763 4.32617 15.6676C4.58368 15.7521 4.82832 15.7943 5.06008 15.7943H5.79398C6.51501 15.7943 7.18454 15.731 7.80256 15.6043C5.99999 15.2666 4.50643 14.5173 3.32188 13.3563C2.13734 12.1954 1.54506 10.834 1.54506 9.272V9.20868C2.11158 9.41975 2.67811 9.59917 3.24463 9.74692C3.81115 9.89468 4.42918 9.96855 5.0987 9.96855C4.06866 9.37754 3.23175 8.61766 2.58798 7.68892C1.9442 6.76018 1.62231 5.74701 1.62231 4.64941C1.62231 3.46738 1.98283 2.39089 2.70386 1.41994C4.66094 3.36184 7.03003 4.93437 9.81114 6.13751C12.5923 7.34065 15.6051 8.00554 18.8498 8.13218C18.6952 7.6256 18.618 7.14012 18.618 6.67575C18.618 5.78923 18.824 4.95548 19.236 4.17449C19.648 3.39351 20.2146 2.70751 20.9356 2.11649C21.6566 1.52547 22.4935 1.0611 23.4463 0.723382C24.3991 0.385658 25.4163 0.216797 26.4978 0.216797C27.6309 0.216797 28.6866 0.396212 29.6652 0.755043C30.6437 1.11387 31.4935 1.60991 32.2145 2.24314C33.1416 2.11649 34.0171 1.91597 34.8411 1.64157C35.6652 1.36717 36.4635 1.04 37.236 0.660059C36.618 2.22203 35.4592 3.42517 33.7596 4.26948C35.4077 4.0584 36.927 3.72068 38.3175 3.25631Z" fill="white"/>
</svg>
