<svg width="24" height="30" viewBox="0 0 24 30" fill="none" xmlns="http://www.w3.org/2000/svg">
<path d="M19.875 26.25C17.8417 26.25 15.8208 25.625 13.8125 24.375C11.8042 23.125 10 21.5 8.4 19.5C6.8 17.5 5.5 15.2448 4.5 12.7344C3.5 10.224 3 7.69792 3 5.15625C3 4.75446 3.10714 4.41964 3.32142 4.15178C3.53571 3.88393 3.80357 3.75 4.125 3.75H7.625C7.85185 3.75 8.0544 3.84896 8.23265 4.04688C8.41088 4.24479 8.525 4.51042 8.575 4.84375L9.25 8.78125C9.28333 9.07292 9.27917 9.33854 9.2375 9.57812C9.19583 9.81771 9.10833 10.0208 8.975 10.1875L6.475 13.3438C7.40833 15.2812 8.45417 16.9688 9.6125 18.4062C10.7708 19.8438 12.0833 21.0625 13.55 22.0625L15.925 19C16.0917 18.7708 16.2833 18.6094 16.5 18.5156C16.7167 18.4219 16.9333 18.4062 17.15 18.4688L20.125 19.2812C20.3802 19.3516 20.5898 19.5098 20.7539 19.7559C20.918 20.002 21 20.2917 21 20.625V24.8438C21 25.2455 20.8929 25.5804 20.6786 25.8482C20.4643 26.1161 20.1964 26.25 19.875 26.25ZM5.725 11.625L7.75 9.0625L7.175 5.625H4.5C4.5 6.4375 4.6 7.32812 4.8 8.29688C5 9.26562 5.30833 10.375 5.725 11.625ZM14.95 22.9688C15.6333 23.3646 16.375 23.6875 17.175 23.9375C17.975 24.1875 18.75 24.3333 19.5 24.375V21.0312L16.925 20.375L14.95 22.9688Z" fill="white"/>
</svg>
